<svg xmlns="http://www.w3.org/2000/svg" width="1200" height="460" viewBox="0 0 1200 460" role="img" aria-label="Feature update footprint by area"><rect x="0" y="0" width="1200" height="460" fill="#f8fafc" /><text x="36" y="56" font-family="Segoe UI, Arial, sans-serif" font-size="33" fill="#0f172a">Feature Update Footprint by Area</text><text x="36" y="90" font-family="Segoe UI, Arial, sans-serif" font-size="18" fill="#334155">Counts of changed files grouped by repository area (excluding .vs).</text><text x="300" y="161" text-anchor="end" font-family="Segoe UI, Arial, sans-serif" font-size="17" fill="#0f172a">scripts</text><rect x="320" y="140" width="820.00" height="30" rx="5" ry="5" fill="#0ea5e9" opacity="0.9" /><text x="1150.00" y="161" font-family="Segoe UI, Arial, sans-serif" font-size="16" fill="#111827">729</text><text x="300" y="211" text-anchor="end" font-family="Segoe UI, Arial, sans-serif" font-size="17" fill="#0f172a">data_output</text><rect x="320" y="190" width="147.35" height="30" rx="5" ry="5" fill="#f59e0b" opacity="0.9" /><text x="477.35" y="211" font-family="Segoe UI, Arial, sans-serif" font-size="16" fill="#111827">131</text><text x="300" y="261" text-anchor="end" font-family="Segoe UI, Arial, sans-serif" font-size="17" fill="#0f172a">docs</text><rect x="320" y="240" width="22.50" height="30" rx="5" ry="5" fill="#10b981" opacity="0.9" /><text x="352.50" y="261" font-family="Segoe UI, Arial, sans-serif" font-size="16" fill="#111827">20</text><text x="300" y="311" text-anchor="end" font-family="Segoe UI, Arial, sans-serif" font-size="17" fill="#0f172a">other</text><rect x="320" y="290" width="4.00" height="30" rx="5" ry="5" fill="#ef4444" opacity="0.9" /><text x="334.00" y="311" font-family="Segoe UI, Arial, sans-serif" font-size="16" fill="#111827">2</text><text x="300" y="361" text-anchor="end" font-family="Segoe UI, Arial, sans-serif" font-size="17" fill="#0f172a">tests</text><rect x="320" y="340" width="4.00" height="30" rx="5" ry="5" fill="#6366f1" opacity="0.9" /><text x="334.00" y="361" font-family="Segoe UI, Arial, sans-serif" font-size="16" fill="#111827">1</text></svg>