<svg xmlns="http://www.w3.org/2000/svg" width="1200" height="710" viewBox="0 0 1200 710" role="img" aria-label="Feature update footprint by area"><rect x="0" y="0" width="1200" height="710" fill="#f8fafc" /><text x="36" y="56" font-family="Segoe UI, Arial, sans-serif" font-size="33" fill="#0f172a">Feature Update Footprint by Area</text><text x="36" y="90" font-family="Segoe UI, Arial, sans-serif" font-size="18" fill="#334155">Counts of changed files grouped by repository area (excluding .vs).</text><text x="300" y="161" text-anchor="end" font-family="Segoe UI, Arial, sans-serif" font-size="17" fill="#0f172a">agent_skill_meta</text><rect x="320" y="140" width="820.00" height="30" rx="5" ry="5" fill="#0ea5e9" opacity="0.9" /><text x="1150.00" y="161" font-family="Segoe UI, Arial, sans-serif" font-size="16" fill="#111827">68</text><text x="300" y="211" text-anchor="end" font-family="Segoe UI, Arial, sans-serif" font-size="17" fill="#0f172a">scripts</text><rect x="320" y="190" width="434.12" height="30" rx="5" ry="5" fill="#f59e0b" opacity="0.9" /><text x="764.12" y="211" font-family="Segoe UI, Arial, sans-serif" font-size="16" fill="#111827">36</text><text x="300" y="261" text-anchor="end" font-family="Segoe UI, Arial, sans-serif" font-size="17" fill="#0f172a">data_output</text><rect x="320" y="240" width="325.59" height="30" rx="5" ry="5" fill="#10b981" opacity="0.9" /><text x="655.59" y="261" font-family="Segoe UI, Arial, sans-serif" font-size="16" fill="#111827">27</text><text x="300" y="311" text-anchor="end" font-family="Segoe UI, Arial, sans-serif" font-size="17" fill="#0f172a">brain</text><rect x="320" y="290" width="217.06" height="30" rx="5" ry="5" fill="#ef4444" opacity="0.9" /><text x="547.06" y="311" font-family="Segoe UI, Arial, sans-serif" font-size="16" fill="#111827">18</text><text x="300" y="361" text-anchor="end" font-family="Segoe UI, Arial, sans-serif" font-size="17" fill="#0f172a">docs</text><rect x="320" y="340" width="168.82" height="30" rx="5" ry="5" fill="#6366f1" opacity="0.9" /><text x="498.82" y="361" font-family="Segoe UI, Arial, sans-serif" font-size="16" fill="#111827">14</text><text x="300" y="411" text-anchor="end" font-family="Segoe UI, Arial, sans-serif" font-size="17" fill="#0f172a">data_input</text><rect x="320" y="390" width="144.71" height="30" rx="5" ry="5" fill="#14b8a6" opacity="0.9" /><text x="474.71" y="411" font-family="Segoe UI, Arial, sans-serif" font-size="16" fill="#111827">12</text><text x="300" y="461" text-anchor="end" font-family="Segoe UI, Arial, sans-serif" font-size="17" fill="#0f172a">renderer</text><rect x="320" y="440" width="132.65" height="30" rx="5" ry="5" fill="#8b5cf6" opacity="0.9" /><text x="462.65" y="461" font-family="Segoe UI, Arial, sans-serif" font-size="16" fill="#111827">11</text><text x="300" y="511" text-anchor="end" font-family="Segoe UI, Arial, sans-serif" font-size="17" fill="#0f172a">tests</text><rect x="320" y="490" width="96.47" height="30" rx="5" ry="5" fill="#84cc16" opacity="0.9" /><text x="426.47" y="511" font-family="Segoe UI, Arial, sans-serif" font-size="16" fill="#111827">8</text><text x="300" y="561" text-anchor="end" font-family="Segoe UI, Arial, sans-serif" font-size="17" fill="#0f172a">github_workflows</text><rect x="320" y="540" width="48.24" height="30" rx="5" ry="5" fill="#f97316" opacity="0.9" /><text x="378.24" y="561" font-family="Segoe UI, Arial, sans-serif" font-size="16" fill="#111827">4</text><text x="300" y="611" text-anchor="end" font-family="Segoe UI, Arial, sans-serif" font-size="17" fill="#0f172a">main</text><rect x="320" y="590" width="48.24" height="30" rx="5" ry="5" fill="#3b82f6" opacity="0.9" /><text x="378.24" y="611" font-family="Segoe UI, Arial, sans-serif" font-size="16" fill="#111827">4</text></svg>