<svg xmlns="http://www.w3.org/2000/svg" width="1320" height="560" viewBox="0 0 1320 560" role="img" aria-label="Weekly progress trend for tokens and feature updates"><rect x="0" y="0" width="1320" height="560" fill="#f8fafc" /><text x="32" y="54" font-family="Segoe UI, Arial, sans-serif" font-size="33" fill="#0f172a">Weekly Progress Trend</text><text x="32" y="88" font-family="Segoe UI, Arial, sans-serif" font-size="18" fill="#334155">7-point trend: token total (left axis) and feature-update files (right axis).</text><line x1="90" y1="440" x2="1200" y2="440" stroke="#94a3b8" stroke-width="1.4" /><line x1="90" y1="110" x2="90" y2="440" stroke="#94a3b8" stroke-width="1.4" /><line x1="1200" y1="110" x2="1200" y2="440" stroke="#94a3b8" stroke-width="1.4" /><text x="90" y="90" font-family="Segoe UI, Arial, sans-serif" font-size="13" fill="#0ea5e9">Tokens</text><text x="1142" y="90" font-family="Segoe UI, Arial, sans-serif" font-size="13" fill="#f97316">Feature updates</text><text x="90.00" y="464.00" text-anchor="middle" font-family="Segoe UI, Arial, sans-serif" font-size="11" fill="#334155">03-05</text><text x="94.00" y="102.00" font-family="Segoe UI, Arial, sans-serif" font-size="10" fill="#0ea5e9">42692</text><text x="94.00" y="124.00" font-family="Segoe UI, Arial, sans-serif" font-size="10" fill="#f97316">14</text><text x="1200.00" y="464.00" text-anchor="middle" font-family="Segoe UI, Arial, sans-serif" font-size="11" fill="#334155">03-06</text><text x="1204.00" y="114.03" font-family="Segoe UI, Arial, sans-serif" font-size="10" fill="#0ea5e9">41136</text><text x="1204.00" y="454.00" font-family="Segoe UI, Arial, sans-serif" font-size="10" fill="#f97316">0</text><polyline points="90.00,110.00 1200.00,122.03" fill="none" stroke="#0ea5e9" stroke-width="3" /><polyline points="90.00,110.00 1200.00,440.00" fill="none" stroke="#f97316" stroke-width="3" /><circle cx="90.00" cy="110.00" r="4.2" fill="#0ea5e9" /><circle cx="90.00" cy="110.00" r="4.2" fill="#f97316" /><circle cx="1200.00" cy="122.03" r="4.2" fill="#0ea5e9" /><circle cx="1200.00" cy="440.00" r="4.2" fill="#f97316" /><rect x="36" y="502" width="18" height="4" fill="#0ea5e9" /><text x="60" y="508" font-family="Segoe UI, Arial, sans-serif" font-size="13" fill="#334155">tokens</text><rect x="132" y="502" width="18" height="4" fill="#f97316" /><text x="156" y="508" font-family="Segoe UI, Arial, sans-serif" font-size="13" fill="#334155">feature updates</text></svg>