<svg xmlns="http://www.w3.org/2000/svg" width="1300" height="560" viewBox="0 0 1300 560" role="img" aria-label="Workflow stage duration timeline"><rect x="0" y="0" width="1300" height="560" fill="#f8fafc" /><text x="32" y="50" font-family="Segoe UI, Arial, sans-serif" font-size="32" fill="#0f172a">Workflow Stage Timeline (Duration + Cumulative)</text><text x="32" y="84" font-family="Segoe UI, Arial, sans-serif" font-size="17" fill="#334155">Bars show per-stage duration. Line shows cumulative runtime progression.</text><line x1="90" y1="430" x2="1260" y2="430" stroke="#94a3b8" stroke-width="1.3" /><line x1="90" y1="100" x2="90" y2="430" stroke="#94a3b8" stroke-width="1.3" /><rect x="57.50" y="304.83" width="65.00" height="125.17" fill="#047857" opacity="0.75" rx="4" ry="4" /><text x="90.00" y="452.00" text-anchor="middle" font-family="Segoe UI, Arial, sans-serif" font-size="11" fill="#1f2937">1</text><text x="90.00" y="474.00" text-anchor="middle" font-family="Segoe UI, Arial, sans-serif" font-size="10" fill="#334155" transform="rotate(25 90.00 474.00)">preflight</text><text x="94.00" y="298.83" font-family="Segoe UI, Arial, sans-serif" font-size="10" fill="#111827">9020.0</text><rect x="187.50" y="338.73" width="65.00" height="91.27" fill="#047857" opacity="0.75" rx="4" ry="4" /><text x="220.00" y="452.00" text-anchor="middle" font-family="Segoe UI, Arial, sans-serif" font-size="11" fill="#1f2937">2</text><text x="220.00" y="474.00" text-anchor="middle" font-family="Segoe UI, Arial, sans-serif" font-size="10" fill="#334155" transform="rotate(25 220.00 474.00)">prune</text><text x="224.00" y="332.73" font-family="Segoe UI, Arial, sans-serif" font-size="10" fill="#111827">6577.0</text><rect x="317.50" y="359.20" width="65.00" height="70.80" fill="#047857" opacity="0.75" rx="4" ry="4" /><text x="350.00" y="452.00" text-anchor="middle" font-family="Segoe UI, Arial, sans-serif" font-size="11" fill="#1f2937">3</text><text x="350.00" y="474.00" text-anchor="middle" font-family="Segoe UI, Arial, sans-serif" font-size="10" fill="#334155" transform="rotate(25 350.00 474.00)">uiux_blueprint</text><text x="354.00" y="353.20" font-family="Segoe UI, Arial, sans-serif" font-size="10" fill="#111827">5102.0</text><rect x="447.50" y="369.41" width="65.00" height="60.59" fill="#047857" opacity="0.75" rx="4" ry="4" /><text x="480.00" y="452.00" text-anchor="middle" font-family="Segoe UI, Arial, sans-serif" font-size="11" fill="#1f2937">4</text><text x="480.00" y="474.00" text-anchor="middle" font-family="Segoe UI, Arial, sans-serif" font-size="10" fill="#334155" transform="rotate(25 480.00 474.00)">hard_governance</text><text x="484.00" y="363.41" font-family="Segoe UI, Arial, sans-serif" font-size="10" fill="#111827">4366.0</text><rect x="577.50" y="274.94" width="65.00" height="155.06" fill="#047857" opacity="0.75" rx="4" ry="4" /><text x="610.00" y="452.00" text-anchor="middle" font-family="Segoe UI, Arial, sans-serif" font-size="11" fill="#1f2937">5</text><text x="610.00" y="474.00" text-anchor="middle" font-family="Segoe UI, Arial, sans-serif" font-size="10" fill="#334155" transform="rotate(25 610.00 474.00)">agent_registry_validation</text><text x="614.00" y="268.94" font-family="Segoe UI, Arial, sans-serif" font-size="10" fill="#111827">11174.0</text><rect x="707.50" y="339.58" width="65.00" height="90.42" fill="#047857" opacity="0.75" rx="4" ry="4" /><text x="740.00" y="452.00" text-anchor="middle" font-family="Segoe UI, Arial, sans-serif" font-size="11" fill="#1f2937">6</text><text x="740.00" y="474.00" text-anchor="middle" font-family="Segoe UI, Arial, sans-serif" font-size="10" fill="#334155" transform="rotate(25 740.00 474.00)">wrapper_contract_gate</text><text x="744.00" y="333.58" font-family="Segoe UI, Arial, sans-serif" font-size="10" fill="#111827">6516.0</text><rect x="837.50" y="347.11" width="65.00" height="82.89" fill="#047857" opacity="0.75" rx="4" ry="4" /><text x="870.00" y="452.00" text-anchor="middle" font-family="Segoe UI, Arial, sans-serif" font-size="11" fill="#1f2937">7</text><text x="870.00" y="474.00" text-anchor="middle" font-family="Segoe UI, Arial, sans-serif" font-size="10" fill="#334155" transform="rotate(25 870.00 474.00)">efficiency_gate</text><text x="874.00" y="341.11" font-family="Segoe UI, Arial, sans-serif" font-size="10" fill="#111827">5973.0</text><rect x="967.50" y="100.00" width="65.00" height="330.00" fill="#047857" opacity="0.75" rx="4" ry="4" /><text x="1000.00" y="452.00" text-anchor="middle" font-family="Segoe UI, Arial, sans-serif" font-size="11" fill="#1f2937">8</text><text x="1000.00" y="474.00" text-anchor="middle" font-family="Segoe UI, Arial, sans-serif" font-size="10" fill="#334155" transform="rotate(25 1000.00 474.00)">pipeline</text><text x="1004.00" y="94.00" font-family="Segoe UI, Arial, sans-serif" font-size="10" fill="#111827">23780.0</text><rect x="1097.50" y="390.82" width="65.00" height="39.18" fill="#047857" opacity="0.75" rx="4" ry="4" /><text x="1130.00" y="452.00" text-anchor="middle" font-family="Segoe UI, Arial, sans-serif" font-size="11" fill="#1f2937">9</text><text x="1130.00" y="474.00" text-anchor="middle" font-family="Segoe UI, Arial, sans-serif" font-size="10" fill="#334155" transform="rotate(25 1130.00 474.00)">separation_audit</text><text x="1134.00" y="384.82" font-family="Segoe UI, Arial, sans-serif" font-size="10" fill="#111827">2823.0</text><rect x="1227.50" y="391.17" width="65.00" height="38.83" fill="#047857" opacity="0.75" rx="4" ry="4" /><text x="1260.00" y="452.00" text-anchor="middle" font-family="Segoe UI, Arial, sans-serif" font-size="11" fill="#1f2937">10</text><text x="1260.00" y="474.00" text-anchor="middle" font-family="Segoe UI, Arial, sans-serif" font-size="10" fill="#334155" transform="rotate(25 1260.00 474.00)">runtime_optimization_backlog</text><text x="1264.00" y="385.17" font-family="Segoe UI, Arial, sans-serif" font-size="10" fill="#111827">2798.0</text><polyline points="90.00,391.90 220.00,364.12 350.00,342.57 480.00,324.13 610.00,276.93 740.00,249.41 870.00,224.18 1000.00,123.74 1130.00,111.82 1260.00,100.00" fill="none" stroke="#7c3aed" stroke-width="3" /><circle cx="90.00" cy="391.90" r="4.5" fill="#7c3aed" /><circle cx="220.00" cy="364.12" r="4.5" fill="#7c3aed" /><circle cx="350.00" cy="342.57" r="4.5" fill="#7c3aed" /><circle cx="480.00" cy="324.13" r="4.5" fill="#7c3aed" /><circle cx="610.00" cy="276.93" r="4.5" fill="#7c3aed" /><circle cx="740.00" cy="249.41" r="4.5" fill="#7c3aed" /><circle cx="870.00" cy="224.18" r="4.5" fill="#7c3aed" /><circle cx="1000.00" cy="123.74" r="4.5" fill="#7c3aed" /><circle cx="1130.00" cy="111.82" r="4.5" fill="#7c3aed" /><circle cx="1260.00" cy="100.00" r="4.5" fill="#7c3aed" /><text x="90" y="80" font-family="Segoe UI, Arial, sans-serif" font-size="13" fill="#334155">Per-stage and cumulative timing in milliseconds</text></svg>