<svg xmlns="http://www.w3.org/2000/svg" width="1300" height="560" viewBox="0 0 1300 560" role="img" aria-label="Workflow stage duration timeline"><rect x="0" y="0" width="1300" height="560" fill="#f8fafc" /><text x="32" y="50" font-family="Segoe UI, Arial, sans-serif" font-size="32" fill="#0f172a">Workflow Stage Timeline (Duration + Cumulative)</text><text x="32" y="84" font-family="Segoe UI, Arial, sans-serif" font-size="17" fill="#334155">Bars show per-stage duration. Line shows cumulative runtime progression.</text><line x1="90" y1="430" x2="1260" y2="430" stroke="#94a3b8" stroke-width="1.3" /><line x1="90" y1="100" x2="90" y2="430" stroke="#94a3b8" stroke-width="1.3" /><rect x="57.50" y="372.50" width="65.00" height="57.50" fill="#047857" opacity="0.75" rx="4" ry="4" /><text x="90.00" y="452.00" text-anchor="middle" font-family="Segoe UI, Arial, sans-serif" font-size="11" fill="#1f2937">1</text><text x="90.00" y="474.00" text-anchor="middle" font-family="Segoe UI, Arial, sans-serif" font-size="10" fill="#334155" transform="rotate(25 90.00 474.00)">preflight</text><text x="94.00" y="366.50" font-family="Segoe UI, Arial, sans-serif" font-size="10" fill="#111827">4010.0</text><rect x="187.50" y="398.54" width="65.00" height="31.46" fill="#047857" opacity="0.75" rx="4" ry="4" /><text x="220.00" y="452.00" text-anchor="middle" font-family="Segoe UI, Arial, sans-serif" font-size="11" fill="#1f2937">2</text><text x="220.00" y="474.00" text-anchor="middle" font-family="Segoe UI, Arial, sans-serif" font-size="10" fill="#334155" transform="rotate(25 220.00 474.00)">prune</text><text x="224.00" y="392.54" font-family="Segoe UI, Arial, sans-serif" font-size="10" fill="#111827">2194.0</text><rect x="317.50" y="100.00" width="65.00" height="330.00" fill="#047857" opacity="0.75" rx="4" ry="4" /><text x="350.00" y="452.00" text-anchor="middle" font-family="Segoe UI, Arial, sans-serif" font-size="11" fill="#1f2937">3</text><text x="350.00" y="474.00" text-anchor="middle" font-family="Segoe UI, Arial, sans-serif" font-size="10" fill="#334155" transform="rotate(25 350.00 474.00)">uiux_blueprint</text><text x="354.00" y="94.00" font-family="Segoe UI, Arial, sans-serif" font-size="10" fill="#111827">23012.0</text><rect x="447.50" y="237.19" width="65.00" height="192.81" fill="#047857" opacity="0.75" rx="4" ry="4" /><text x="480.00" y="452.00" text-anchor="middle" font-family="Segoe UI, Arial, sans-serif" font-size="11" fill="#1f2937">4</text><text x="480.00" y="474.00" text-anchor="middle" font-family="Segoe UI, Arial, sans-serif" font-size="10" fill="#334155" transform="rotate(25 480.00 474.00)">hard_governance</text><text x="484.00" y="231.19" font-family="Segoe UI, Arial, sans-serif" font-size="10" fill="#111827">13445.0</text><rect x="577.50" y="325.80" width="65.00" height="104.20" fill="#047857" opacity="0.75" rx="4" ry="4" /><text x="610.00" y="452.00" text-anchor="middle" font-family="Segoe UI, Arial, sans-serif" font-size="11" fill="#1f2937">5</text><text x="610.00" y="474.00" text-anchor="middle" font-family="Segoe UI, Arial, sans-serif" font-size="10" fill="#334155" transform="rotate(25 610.00 474.00)">agent_registry_validation</text><text x="614.00" y="319.80" font-family="Segoe UI, Arial, sans-serif" font-size="10" fill="#111827">7266.0</text><rect x="707.50" y="356.71" width="65.00" height="73.29" fill="#047857" opacity="0.75" rx="4" ry="4" /><text x="740.00" y="452.00" text-anchor="middle" font-family="Segoe UI, Arial, sans-serif" font-size="11" fill="#1f2937">6</text><text x="740.00" y="474.00" text-anchor="middle" font-family="Segoe UI, Arial, sans-serif" font-size="10" fill="#334155" transform="rotate(25 740.00 474.00)">wrapper_contract_gate</text><text x="744.00" y="350.71" font-family="Segoe UI, Arial, sans-serif" font-size="10" fill="#111827">5111.0</text><rect x="837.50" y="364.91" width="65.00" height="65.09" fill="#047857" opacity="0.75" rx="4" ry="4" /><text x="870.00" y="452.00" text-anchor="middle" font-family="Segoe UI, Arial, sans-serif" font-size="11" fill="#1f2937">7</text><text x="870.00" y="474.00" text-anchor="middle" font-family="Segoe UI, Arial, sans-serif" font-size="10" fill="#334155" transform="rotate(25 870.00 474.00)">efficiency_gate</text><text x="874.00" y="358.91" font-family="Segoe UI, Arial, sans-serif" font-size="10" fill="#111827">4539.0</text><rect x="967.50" y="337.36" width="65.00" height="92.64" fill="#047857" opacity="0.75" rx="4" ry="4" /><text x="1000.00" y="452.00" text-anchor="middle" font-family="Segoe UI, Arial, sans-serif" font-size="11" fill="#1f2937">8</text><text x="1000.00" y="474.00" text-anchor="middle" font-family="Segoe UI, Arial, sans-serif" font-size="10" fill="#334155" transform="rotate(25 1000.00 474.00)">pipeline</text><text x="1004.00" y="331.36" font-family="Segoe UI, Arial, sans-serif" font-size="10" fill="#111827">6460.0</text><rect x="1097.50" y="358.66" width="65.00" height="71.34" fill="#047857" opacity="0.75" rx="4" ry="4" /><text x="1130.00" y="452.00" text-anchor="middle" font-family="Segoe UI, Arial, sans-serif" font-size="11" fill="#1f2937">9</text><text x="1130.00" y="474.00" text-anchor="middle" font-family="Segoe UI, Arial, sans-serif" font-size="10" fill="#334155" transform="rotate(25 1130.00 474.00)">separation_audit</text><text x="1134.00" y="352.66" font-family="Segoe UI, Arial, sans-serif" font-size="10" fill="#111827">4975.0</text><rect x="1227.50" y="334.41" width="65.00" height="95.59" fill="#047857" opacity="0.75" rx="4" ry="4" /><text x="1260.00" y="452.00" text-anchor="middle" font-family="Segoe UI, Arial, sans-serif" font-size="11" fill="#1f2937">10</text><text x="1260.00" y="474.00" text-anchor="middle" font-family="Segoe UI, Arial, sans-serif" font-size="10" fill="#334155" transform="rotate(25 1260.00 474.00)">runtime_optimization_backlog</text><text x="1264.00" y="328.41" font-family="Segoe UI, Arial, sans-serif" font-size="10" fill="#111827">6666.0</text><polyline points="90.00,412.96 220.00,403.64 350.00,305.88 480.00,248.76 610.00,217.89 740.00,196.18 870.00,176.90 1000.00,149.45 1130.00,128.32 1260.00,100.00" fill="none" stroke="#7c3aed" stroke-width="3" /><circle cx="90.00" cy="412.96" r="4.5" fill="#7c3aed" /><circle cx="220.00" cy="403.64" r="4.5" fill="#7c3aed" /><circle cx="350.00" cy="305.88" r="4.5" fill="#7c3aed" /><circle cx="480.00" cy="248.76" r="4.5" fill="#7c3aed" /><circle cx="610.00" cy="217.89" r="4.5" fill="#7c3aed" /><circle cx="740.00" cy="196.18" r="4.5" fill="#7c3aed" /><circle cx="870.00" cy="176.90" r="4.5" fill="#7c3aed" /><circle cx="1000.00" cy="149.45" r="4.5" fill="#7c3aed" /><circle cx="1130.00" cy="128.32" r="4.5" fill="#7c3aed" /><circle cx="1260.00" cy="100.00" r="4.5" fill="#7c3aed" /><text x="90" y="80" font-family="Segoe UI, Arial, sans-serif" font-size="13" fill="#334155">Per-stage and cumulative timing in milliseconds</text></svg>