<svg xmlns="http://www.w3.org/2000/svg" width="1300" height="560" viewBox="0 0 1300 560" role="img" aria-label="Workflow stage duration timeline"><rect x="0" y="0" width="1300" height="560" fill="#f8fafc" /><text x="32" y="50" font-family="Segoe UI, Arial, sans-serif" font-size="32" fill="#0f172a">Workflow Stage Timeline (Duration + Cumulative)</text><text x="32" y="84" font-family="Segoe UI, Arial, sans-serif" font-size="17" fill="#334155">Bars show per-stage duration. Line shows cumulative runtime progression.</text><line x1="90" y1="430" x2="1260" y2="430" stroke="#94a3b8" stroke-width="1.3" /><line x1="90" y1="100" x2="90" y2="430" stroke="#94a3b8" stroke-width="1.3" /><rect x="57.50" y="383.41" width="65.00" height="46.59" fill="#d97706" opacity="0.75" rx="4" ry="4" /><text x="90.00" y="452.00" text-anchor="middle" font-family="Segoe UI, Arial, sans-serif" font-size="11" fill="#1f2937">1</text><text x="90.00" y="474.00" text-anchor="middle" font-family="Segoe UI, Arial, sans-serif" font-size="10" fill="#334155" transform="rotate(25 90.00 474.00)">preflight</text><text x="94.00" y="377.41" font-family="Segoe UI, Arial, sans-serif" font-size="10" fill="#111827">1353.0</text><rect x="187.50" y="422.32" width="65.00" height="7.68" fill="#d97706" opacity="0.75" rx="4" ry="4" /><text x="220.00" y="452.00" text-anchor="middle" font-family="Segoe UI, Arial, sans-serif" font-size="11" fill="#1f2937">2</text><text x="220.00" y="474.00" text-anchor="middle" font-family="Segoe UI, Arial, sans-serif" font-size="10" fill="#334155" transform="rotate(25 220.00 474.00)">prune</text><text x="224.00" y="416.32" font-family="Segoe UI, Arial, sans-serif" font-size="10" fill="#111827">223.0</text><rect x="317.50" y="425.32" width="65.00" height="4.68" fill="#d97706" opacity="0.75" rx="4" ry="4" /><text x="350.00" y="452.00" text-anchor="middle" font-family="Segoe UI, Arial, sans-serif" font-size="11" fill="#1f2937">3</text><text x="350.00" y="474.00" text-anchor="middle" font-family="Segoe UI, Arial, sans-serif" font-size="10" fill="#334155" transform="rotate(25 350.00 474.00)">uiux_blueprint</text><text x="354.00" y="419.32" font-family="Segoe UI, Arial, sans-serif" font-size="10" fill="#111827">136.0</text><rect x="447.50" y="418.78" width="65.00" height="11.22" fill="#d97706" opacity="0.75" rx="4" ry="4" /><text x="480.00" y="452.00" text-anchor="middle" font-family="Segoe UI, Arial, sans-serif" font-size="11" fill="#1f2937">4</text><text x="480.00" y="474.00" text-anchor="middle" font-family="Segoe UI, Arial, sans-serif" font-size="10" fill="#334155" transform="rotate(25 480.00 474.00)">hard_governance</text><text x="484.00" y="412.78" font-family="Segoe UI, Arial, sans-serif" font-size="10" fill="#111827">326.0</text><rect x="577.50" y="423.70" width="65.00" height="6.30" fill="#d97706" opacity="0.75" rx="4" ry="4" /><text x="610.00" y="452.00" text-anchor="middle" font-family="Segoe UI, Arial, sans-serif" font-size="11" fill="#1f2937">5</text><text x="610.00" y="474.00" text-anchor="middle" font-family="Segoe UI, Arial, sans-serif" font-size="10" fill="#334155" transform="rotate(25 610.00 474.00)">agent_registry_validation</text><text x="614.00" y="417.70" font-family="Segoe UI, Arial, sans-serif" font-size="10" fill="#111827">183.0</text><rect x="707.50" y="424.90" width="65.00" height="5.10" fill="#d97706" opacity="0.75" rx="4" ry="4" /><text x="740.00" y="452.00" text-anchor="middle" font-family="Segoe UI, Arial, sans-serif" font-size="11" fill="#1f2937">6</text><text x="740.00" y="474.00" text-anchor="middle" font-family="Segoe UI, Arial, sans-serif" font-size="10" fill="#334155" transform="rotate(25 740.00 474.00)">wrapper_contract_gate</text><text x="744.00" y="418.90" font-family="Segoe UI, Arial, sans-serif" font-size="10" fill="#111827">148.0</text><rect x="837.50" y="423.73" width="65.00" height="6.27" fill="#d97706" opacity="0.75" rx="4" ry="4" /><text x="870.00" y="452.00" text-anchor="middle" font-family="Segoe UI, Arial, sans-serif" font-size="11" fill="#1f2937">7</text><text x="870.00" y="474.00" text-anchor="middle" font-family="Segoe UI, Arial, sans-serif" font-size="10" fill="#334155" transform="rotate(25 870.00 474.00)">efficiency_gate</text><text x="874.00" y="417.73" font-family="Segoe UI, Arial, sans-serif" font-size="10" fill="#111827">182.0</text><rect x="967.50" y="100.00" width="65.00" height="330.00" fill="#d97706" opacity="0.75" rx="4" ry="4" /><text x="1000.00" y="452.00" text-anchor="middle" font-family="Segoe UI, Arial, sans-serif" font-size="11" fill="#1f2937">8</text><text x="1000.00" y="474.00" text-anchor="middle" font-family="Segoe UI, Arial, sans-serif" font-size="10" fill="#334155" transform="rotate(25 1000.00 474.00)">pipeline</text><text x="1004.00" y="94.00" font-family="Segoe UI, Arial, sans-serif" font-size="10" fill="#111827">9584.0</text><rect x="1097.50" y="425.08" width="65.00" height="4.92" fill="#d97706" opacity="0.75" rx="4" ry="4" /><text x="1130.00" y="452.00" text-anchor="middle" font-family="Segoe UI, Arial, sans-serif" font-size="11" fill="#1f2937">9</text><text x="1130.00" y="474.00" text-anchor="middle" font-family="Segoe UI, Arial, sans-serif" font-size="10" fill="#334155" transform="rotate(25 1130.00 474.00)">separation_audit</text><text x="1134.00" y="419.08" font-family="Segoe UI, Arial, sans-serif" font-size="10" fill="#111827">143.0</text><rect x="1227.50" y="426.35" width="65.00" height="3.65" fill="#d97706" opacity="0.75" rx="4" ry="4" /><text x="1260.00" y="452.00" text-anchor="middle" font-family="Segoe UI, Arial, sans-serif" font-size="11" fill="#1f2937">10</text><text x="1260.00" y="474.00" text-anchor="middle" font-family="Segoe UI, Arial, sans-serif" font-size="10" fill="#334155" transform="rotate(25 1260.00 474.00)">runtime_optimization_backlog</text><text x="1264.00" y="420.35" font-family="Segoe UI, Arial, sans-serif" font-size="10" fill="#111827">106.0</text><polyline points="90.00,393.95 220.00,388.00 350.00,384.38 480.00,375.69 610.00,370.82 740.00,366.87 870.00,362.02 1000.00,106.64 1130.00,102.82 1260.00,100.00" fill="none" stroke="#7c3aed" stroke-width="3" /><circle cx="90.00" cy="393.95" r="4.5" fill="#7c3aed" /><circle cx="220.00" cy="388.00" r="4.5" fill="#7c3aed" /><circle cx="350.00" cy="384.38" r="4.5" fill="#7c3aed" /><circle cx="480.00" cy="375.69" r="4.5" fill="#7c3aed" /><circle cx="610.00" cy="370.82" r="4.5" fill="#7c3aed" /><circle cx="740.00" cy="366.87" r="4.5" fill="#7c3aed" /><circle cx="870.00" cy="362.02" r="4.5" fill="#7c3aed" /><circle cx="1000.00" cy="106.64" r="4.5" fill="#7c3aed" /><circle cx="1130.00" cy="102.82" r="4.5" fill="#7c3aed" /><circle cx="1260.00" cy="100.00" r="4.5" fill="#7c3aed" /><text x="90" y="80" font-family="Segoe UI, Arial, sans-serif" font-size="13" fill="#334155">Per-stage and cumulative timing in milliseconds</text></svg>